# xmcd
#
# Track frame offsets:
#  187
#  21210
#  39415
#  55750
#  71450
#  83222
#  103765
#  124305
#  145340
#  164195
#
# Disc length: 2413 seconds
#
# Revision: 3
# Processed by: cddbd v1.5.1PL2 Copyright (c) Steve Scherf et al.
# Submitted via: Collectorz.com_Music_Collector 6.9
#
DISCID=8d096b0a
DTITLE=Vince Gill - Let There Be Peace on Earth
DYEAR=1993
DGENRE=Christmas - General Country
TTITLE0=Do You Hear What I Hear?
TTITLE1=Have Yourself A Merry Little Christmas
TTITLE2=One Bright Star
TTITLE3=What Child Is This? (Greensleeves)
TTITLE4=Santa Claus Is Comin' To Town
TTITLE5=I'll Be Home For Christmas
TTITLE6=Let There Be Peace On Earth
TTITLE7=White Christmas
TTITLE8=Til The Season Comes Around Again
TTITLE9=It Won't Be The Same This Year
EXTD=
EXTT0=
EXTT1=
EXTT2=
EXTT3=
EXTT4=
EXTT5=
EXTT6=
EXTT7=
EXTT8=
EXTT9=
PLAYORDER=
